<svg aria-hidden="true" style="position: absolute; width: 0; height: 0; overflow: hidden;" version="1.1" xmlns="http://www.w3.org/2000/svg" xmlns:xlink="http://www.w3.org/1999/xlink">
<defs>
<symbol id="icon-linkedin" viewBox="0 0 32 32">
<path d="M32 32h-6.154v-11.207c0-3.074-1.303-4.789-3.64-4.789-2.543 0-4.052 1.787-4.052 4.789v11.207h-6.154v-20.815h6.154v2.341c0 0 1.931-3.526 6.282-3.526 4.352 0 7.565 2.764 7.565 8.483 0 5.718 0 13.517 0 13.517zM3.001 6c-1.658 0-3.001-1.344-3.001-3.001 0-1.656 1.343-2.999 3.001-2.999 1.656 0 2.999 1.344 2.999 2.999 0.001 1.657-1.343 3.001-2.999 3.001zM0 32h6v-20h-6v20z"></path>
</symbol>
<symbol id="icon-google" viewBox="0 0 32 32">
<path d="M31.715 12.806h-15.376c0 1.599 0 4.797-0.010 6.396h8.91c-0.341 1.599-1.552 3.838-3.262 4.965l-0.007 0.008c-2.274 1.502-5.275 1.842-7.504 1.395-3.493-0.694-6.257-3.227-7.379-6.444 0.006-0.005 0.011-0.050 0.016-0.053-0.702-1.996-0.702-4.668 0-6.267 0.905-2.939 3.751-5.621 7.249-6.355 2.813-0.596 5.988 0.050 8.322 2.234 0.31-0.304 4.297-4.196 4.596-4.513-7.976-7.223-20.746-4.682-25.525 4.645 0 0 0 0-0.010 0.018-2.364 4.581-2.266 9.98 0.016 14.342-0.007 0.005-0.011 0.008-0.016 0.013 2.068 4.014 5.832 7.092 10.367 8.264 4.818 1.263 10.949 0.4 15.056-3.315l0.005 0.005c3.48-3.134 5.646-8.474 4.552-15.338z"></path>
</symbol>
<symbol id="icon-facebook" viewBox="0 0 17 32">
<path d="M11.642 32v-14.4h4.663l0.762-6.4h-5.425v-3.117c0-1.648 0.045-3.283 2.501-3.283h2.488v-4.576c0-0.069-2.137-0.224-4.299-0.224-4.515 0-7.343 2.651-7.343 7.52v3.68h-4.989v6.4h4.989v14.4h6.652z"></path>
</symbol>
<symbol id="icon-rose" viewBox="0 0 16 32">
<path d="M16.008 10.001v-5c0-0.552-0.448-1-1.001-1h-1.001v-3c0-0.552-0.448-1-1-1-1.416 0-3.586-0.108-6.132 1.416-1.583-0.471-2.702-0.416-3.873-0.416-0.553 0-1 0.448-1 1v2h-1c-0.553 0-1 0.448-1 1v5c0 4.072 3.061 7.444 7.003 7.937v13.062c0 0.552 0.448 1 1 1s1.001-0.448 1.001-1v-3.5h1.501c3.034 0 5.503-2.467 5.503-5.5v-1.5c0-0.552-0.448-1-1.001-1h-2.501c-1.329 0-2.55 0.473-3.502 1.26v-2.823c3.937-0.487 7.003-3.842 7.003-7.937zM14.007 10.001c0 1.78-0.787 3.387-2.032 4.489 0.020-0.16 0.031-0.323 0.031-0.489 0-2.532-0.947-4.847-2.505-6.611 1.321-0.901 2.887-1.389 4.506-1.389v4zM12.006 2.002v2.202c-0.185 0.038-0.368 0.081-0.551 0.128-0.649-0.726-1.389-1.345-2.197-1.845 0.874-0.319 1.801-0.485 2.748-0.485zM4.002 3.002c1.988 0 3.918 0.725 5.419 2.111-0.495 0.256-0.97 0.553-1.42 0.891-1.163-0.874-2.522-1.501-3.999-1.802v-1.201zM2.001 10.001v-4c4.413 0 8.004 3.589 8.004 8 0 1.117-0.923 2.028-2.054 1.999-3.515-0.087-5.95-2.878-5.95-5.999zM12.506 21.501h1.501v0.5c0 1.93-1.571 3.5-3.502 3.5h-1.501v-0.5c0-1.93 1.571-3.5 3.502-3.5z"></path>
</symbol>
<symbol id="icon-search" viewBox="0 0 32 32">
<path d="M20.667 18.667h-1.053l-0.373-0.36c1.307-1.52 2.093-3.493 2.093-5.64 0-4.787-3.88-8.667-8.667-8.667s-8.667 3.88-8.667 8.667c0 4.787 3.88 8.667 8.667 8.667 2.147 0 4.12-0.787 5.64-2.093l0.36 0.373v1.053l6.667 6.653 1.987-1.987-6.653-6.667zM12.667 18.667c-3.32 0-6-2.68-6-6s2.68-6 6-6c3.32 0 6 2.68 6 6s-2.68 6-6 6z"></path>
</symbol>
<symbol id="icon-menu" viewBox="0 0 48 32">
<path d="M0 32h48.025v-5.333h-48.025v5.333zM0 18.667h48.025v-5.333h-48.025v5.333zM0 0v5.333h48.025v-5.333h-48.025z"></path>
</symbol>
<symbol id="icon-play" viewBox="0 0 26 32">
<path d="M0 0v31.59l24.833-15.795-24.833-15.795z"></path>
</symbol>
</defs>
</svg>
